<svg id="Layer_1" data-name="Layer 1" xmlns="http://www.w3.org/2000/svg" viewBox="0 0 1080 1080">
  <path d="M1080,0H0V1080H1080Z" fill="#a8d9d8" />
  <path d="M563.38328,651.95725c125.70677,0,227.612-101.90859,227.612-227.61535,0-125.70611-101.90521-227.612-227.612-227.612-125.71014,0-227.61535,101.9059-227.61535,227.612C335.76793,550.04866,437.67314,651.95725,563.38328,651.95725Z" fill="#96bbf9" />
  <path d="M305.41385,719.25605A153.52207,153.52207,0,1,0,151.8928,565.7323,153.52242,153.52242,0,0,0,305.41385,719.25605Z" fill="#ba8def" />
  <path d="M908.56741,943.39464A108.55746,108.55746,0,1,0,800.00993,834.83721,108.55838,108.55838,0,0,0,908.56741,943.39464Z" fill="#ee130c" />
</svg>