<svg id="Layer_1" data-name="Layer 1" xmlns="http://www.w3.org/2000/svg" viewBox="0 0 1080 1080">
  <path d="M1080.00026,0H-.00026V1080H1080.00026Z" fill="#a8d9d8" />
  <path d="M566.32811,812.57156c179.768,0,325.49844-145.73042,325.49844-325.49844,0-179.77-145.73042-325.5011-325.49844-325.5011S240.82834,307.30313,240.82834,487.07312C240.82834,666.84114,386.56014,812.57156,566.32811,812.57156Z" fill="#94ceea" />
  <path d="M367.39308,746.65471a165.88293,165.88293,0,1,0-165.8826-165.88457A165.88441,165.88441,0,0,0,367.39308,746.65471Z" fill="#8fb2fc" />
  <path d="M944.50584,981.45105a95.775,95.775,0,1,0-95.775-95.775A95.7771,95.7771,0,0,0,944.50584,981.45105Z" fill="#ee130c" />
</svg>