<svg id="Layer_1" data-name="Layer 1" xmlns="http://www.w3.org/2000/svg" viewBox="0 0 1080 1080">
  <path d="M1080-.00031H0V1080.00031H1080Z" fill="#a8d9d8" />
  <path d="M563.80463,740.36063c152.83781,0,276.73772-123.89986,276.73772-276.73772,0-152.83753-123.89991-276.7374-276.73772-276.7374S287.06755,310.78538,287.06755,463.62291C287.06755,616.46077,410.96677,740.36063,563.80463,740.36063Z" fill="#94c7f1" />
  <path d="M340.86713,716.71638A158.10144,158.10144,0,1,0,182.76839,558.61494,158.10081,158.10081,0,0,0,340.86713,716.71638Z" fill="#9ea5fc" />
  <path d="M920.55679,964.312a99.99962,99.99962,0,1,0-100.00133-99.998A99.99786,99.99786,0,0,0,920.55679,964.312Z" fill="#ee130c" />
</svg>